<?xml version="1.0" encoding="UTF-8" standalone="no"?>
<!-- Created with Inkscape (http://www.inkscape.org/) -->

<svg
   width="270.62402mm"
   height="46.669827mm"
   viewBox="0 0 270.62402 46.669827"
   version="1.1"
   id="svg1"
   xml:space="preserve"
   inkscape:version="1.3.2 (091e20e, 2023-11-25)"
   sodipodi:docname="fig_ordering.svg"
   xmlns:inkscape="http://www.inkscape.org/namespaces/inkscape"
   xmlns:sodipodi="http://sodipodi.sourceforge.net/DTD/sodipodi-0.dtd"
   xmlns="http://www.w3.org/2000/svg"
   xmlns:svg="http://www.w3.org/2000/svg"><sodipodi:namedview
     id="namedview1"
     pagecolor="#505050"
     bordercolor="#eeeeee"
     borderopacity="1"
     inkscape:showpageshadow="0"
     inkscape:pageopacity="0"
     inkscape:pagecheckerboard="0"
     inkscape:deskcolor="#d1d1d1"
     inkscape:document-units="mm"
     inkscape:zoom="0.51465132"
     inkscape:cx="405.12866"
     inkscape:cy="34.003604"
     inkscape:window-width="1920"
     inkscape:window-height="1017"
     inkscape:window-x="1920"
     inkscape:window-y="27"
     inkscape:window-maximized="1"
     inkscape:current-layer="layer1" /><defs
     id="defs1" /><g
     inkscape:label="Layer 1"
     inkscape:groupmode="layer"
     id="layer1"
     transform="translate(-6.2090482,-118.70438)"><g
       id="g1"
       transform="matrix(0.26458333,0,0,0.26458333,-74.993444,0.33800698)"><polyline
         class="StaffLines"
         fill="none"
         stroke="#000000"
         stroke-width="2.73"
         stroke-linejoin="bevel"
         points="336.598,634.198 699.31,634.198"
         id="polyline1"
         transform="translate(-29.690939,-150.91563)" /><polyline
         class="StaffLines"
         fill="none"
         stroke="#000000"
         stroke-width="2.73"
         stroke-linejoin="bevel"
         points="336.598,658.998 699.31,658.998"
         id="polyline2"
         transform="translate(-29.690939,-150.91563)" /><polyline
         class="StaffLines"
         fill="none"
         stroke="#000000"
         stroke-width="2.73"
         stroke-linejoin="bevel"
         points="336.598,683.798 699.31,683.798"
         id="polyline3"
         transform="translate(-29.690939,-150.91563)" /><polyline
         class="StaffLines"
         fill="none"
         stroke="#000000"
         stroke-width="2.73"
         stroke-linejoin="bevel"
         points="336.598,708.598 699.31,708.598"
         id="polyline4"
         transform="translate(-29.690939,-150.91563)" /><polyline
         class="StaffLines"
         fill="none"
         stroke="#000000"
         stroke-width="2.73"
         stroke-linejoin="bevel"
         points="336.598,733.398 699.31,733.398"
         id="polyline5"
         transform="translate(-29.690939,-150.91563)" /><polyline
         class="BarLine"
         fill="none"
         stroke="#000000"
         stroke-width="4.46"
         stroke-linejoin="bevel"
         points="674.262,632.834 674.262,734.762"
         id="polyline7"
         transform="translate(-29.690939,-150.91563)" /><polyline
         class="BarLine"
         fill="none"
         stroke="#000000"
         stroke-width="13.64"
         stroke-linejoin="bevel"
         points="692.49,632.834 692.49,734.762"
         id="polyline8"
         transform="translate(-29.690939,-150.91563)" /><path
         class="Note"
         d="m 522.01254,544.19732 c -13.68648,0 -18.55348,6.94405 -18.55348,13.39205 0,6.448 4.867,13.39204 18.55348,13.39204 13.68652,0 18.44505,-6.94404 18.44505,-13.39204 0,-6.448 -4.75853,-13.39205 -18.44505,-13.39205 m 0.79052,23.60652 c -2.77452,0 -4.66547,-0.79047 -5.952,-3.27047 -1.28652,-2.48 -3.06895,-8.928 -3.17747,-11.51651 -0.20148,-2.68149 0.79052,-4.26249 3.17747,-5.053 1.19348,-0.40297 2.77453,-0.60454 4.37105,-0.60454 2.666,0 4.464,0.60454 5.84348,3.28605 1.39495,2.573 3.286,9.021 3.286,11.501 0,4.867 -3.58053,5.65747 -7.54853,5.65747"
         id="path8"
         style="stroke-width:0.992" /><path
         class="Note"
         d="m 522.01254,519.39732 c -13.68648,0 -18.55348,6.94405 -18.55348,13.39205 0,6.448 4.867,13.39204 18.55348,13.39204 13.68652,0 18.44505,-6.94404 18.44505,-13.39204 0,-6.448 -4.75853,-13.39205 -18.44505,-13.39205 m 0.79052,23.60652 c -2.77452,0 -4.66547,-0.79047 -5.952,-3.27047 -1.28652,-2.48 -3.06895,-8.928 -3.17747,-11.51651 -0.20148,-2.68149 0.79052,-4.26249 3.17747,-5.053 1.19348,-0.40297 2.77453,-0.60454 4.37105,-0.60454 2.666,0 4.464,0.60454 5.84348,3.28605 1.39495,2.573 3.286,9.021 3.286,11.501 0,4.867 -3.58053,5.65747 -7.54853,5.65747"
         id="path9"
         style="stroke-width:0.992" /><path
         class="Clef"
         d="m 337.70559,608.56889 c 0,6.55652 4.96,15.19 18.352,15.19 4.66547,0 8.742,-1.19348 12.30695,-3.37905 5.36305,-3.76643 6.74252,-10.32295 6.74252,-16.56947 0,-3.85948 -0.58895,-8.32348 -1.58095,-13.98096 -0.29452,-1.984 -0.89905,-4.96 -1.488,-8.83504 9.71843,-3.17748 16.95695,-13.29896 16.95695,-23.5135 0,-14.97303 -10.61747,-25.0945 -25.09452,-25.0945 -0.992,-5.952 -1.984,-11.81105 -2.77443,-17.36 10.416,-11.02053 17.65443,-23.42053 17.65443,-39.184 0,-9.03653 -2.77443,-16.368 -4.37095,-19.94813 -2.37148,-5.05325 -5.25453,-8.52525 -7.03705,-8.52525 -0.69748,0 -3.76643,1.19338 -7.03695,5.05325 -6.35505,7.54813 -8.13748,20.24265 -8.13748,28.56613 0,5.36295 0.496,10.23 2.18548,21.34347 -0.10853,0.0931 -5.27,5.34748 -7.34705,7.03705 -9.03643,8.33895 -21.52948,20.42895 -21.52948,40.28448 0,18.53804 16.16653,33.12352 34.62705,33.12352 2.86748,0 5.54895,-0.29452 7.82748,-0.69748 1.89095,9.53243 3.08452,16.47643 3.08452,21.73096 0,10.32304 -5.36305,15.77904 -15.376,15.77904 -2.38705,0 -4.464,-0.496 -4.66557,-0.496 -0.093,-0.10852 -0.29443,-0.20157 -0.29443,-0.29452 0,-0.20148 0.20148,-0.31 0.496,-0.31 4.66548,-0.79052 9.31548,-4.75852 9.31548,-11.098 0,-5.36305 -4.06105,-11.02052 -11.50105,-11.02052 -6.944,0 -11.31495,5.65747 -11.31495,12.19852 m 20.73895,-132.432 c 0.89905,-3.968 5.456,-14.384 10.61757,-14.384 1.488,0 3.85948,4.75843 3.85948,11.70243 0,10.32305 -7.626,18.05757 -14.47705,24.8 -0.58895,-3.968 -1.08495,-7.82748 -1.08495,-11.99695 0,-3.67348 0.29452,-7.05253 1.08495,-10.12148 m 8.72652,101.97452 c -1.984,0.40296 -3.85947,0.60443 -5.75052,0.60443 -14.18243,0 -26.28797,-9.92 -26.28797,-24.90847 0,-12.09005 8.52502,-22.909 17.26702,-30.45753 1.674,-1.488 3.27052,-2.86747 4.75852,-4.35547 0.88348,5.34747 1.58095,10.01295 2.27843,14.08947 -9.03643,2.68148 -15.17443,12.19853 -15.17443,21.52953 0,6.944 5.456,16.461 13.392,16.461 0.79043,0 1.68948,-0.40296 1.68948,-1.28653 0,-0.89895 -0.992,-1.39495 -2.18548,-2.18547 -3.87505,-2.387 -6.06052,-4.96 -6.06052,-9.827 0,-6.045 4.57252,-10.91205 10.32295,-12.29153 l 5.75052,32.62757 m 14.08948,-18.35204 c 0,7.0525 -2.88295,14.291 -9.92,17.17404 -2.07695,-11.90404 -4.75843,-27.68304 -5.456,-32.05409 8.928,0 15.376,6.06054 15.376,14.88005"
         id="path10"
         style="stroke-width:0.992" /><path
         class="TimeSig"
         d="m 433.03059,520.68384 v 7.33157 h -8.23053 c -0.69747,0 -1.39495,0.60443 -1.39495,1.39496 v 1.89104 c 0,0.79043 0.69748,1.37948 1.39495,1.37948 h 30.05453 c 0.806,0 1.39495,-0.58905 1.39495,-1.37948 v -1.89104 c 0,-0.79053 -0.58895,-1.39496 -1.39495,-1.39496 h -8.81948 v -7.33157 h 8.81948 c 0.806,0 1.39495,-0.69747 1.39495,-1.488 v -1.89097 c 0,-0.6975 -0.58895,-1.3795 -1.39495,-1.3795 h -8.81948 v -15.779 c 0,-0.589 -0.29452,-1.085 -0.79052,-1.28651 l -1.19348,-0.60449 c -0.20157,-0.093 -0.496,-0.18605 -0.69757,-0.18605 -0.29443,0.0931 -0.69748,0.18605 -0.89895,0.38754 l -9.02105,8.23051 c -0.29443,0.31 -0.40295,0.6975 -0.40295,1.1005 v 8.1375 h -11.40802 c 0,0 11.02054,-11.904 22.72297,-27.59005 0.40305,-0.496 0.496,-0.992 0.496,-1.37948 0,-0.496 -0.20148,-0.89895 -0.29443,-0.992 l -2.18557,-2.18547 c -0.20148,-0.20148 -0.58895,-0.40305 -0.992,-0.40305 -0.58895,0 -13.99643,0 -14.67843,0 -0.806,0 -1.302,0.60452 -1.39505,1.19357 0,0 -0.496,7.34695 -3.069,15.37597 -2.58849,8.04451 -5.56449,13.00451 -8.13749,16.66251 0,0 -0.29451,0.496 -0.29451,1.1005 0,0.2015 0,0.38754 0.093,0.58902 0.403,0.69748 0.992,1.78252 0.992,1.78252 0,0 0.20151,0.60443 1.085,0.60443 h 17.06553"
         id="path11"
         style="stroke-width:0.992" /><path
         class="TimeSig"
         d="m 433.03059,570.28384 v 7.33157 h -8.23053 c -0.69747,0 -1.39495,0.60443 -1.39495,1.39496 v 1.89104 c 0,0.79043 0.69748,1.37948 1.39495,1.37948 h 30.05453 c 0.806,0 1.39495,-0.58905 1.39495,-1.37948 v -1.89104 c 0,-0.79053 -0.58895,-1.39496 -1.39495,-1.39496 h -8.81948 v -7.33157 h 8.81948 c 0.806,0 1.39495,-0.69747 1.39495,-1.488 v -1.89097 c 0,-0.6975 -0.58895,-1.3795 -1.39495,-1.3795 h -8.81948 v -15.779 c 0,-0.589 -0.29452,-1.085 -0.79052,-1.28651 l -1.19348,-0.60449 c -0.20157,-0.093 -0.496,-0.18605 -0.69757,-0.18605 -0.29443,0.0931 -0.69748,0.18605 -0.89895,0.38754 l -9.02105,8.23051 c -0.29443,0.31 -0.40295,0.6975 -0.40295,1.1005 v 8.1375 h -11.40802 c 0,0 11.02054,-11.904 22.72297,-27.59005 0.40305,-0.496 0.496,-0.992 0.496,-1.37948 0,-0.496 -0.20148,-0.89895 -0.29443,-0.992 l -2.18557,-2.18547 c -0.20148,-0.20148 -0.58895,-0.40305 -0.992,-0.40305 -0.58895,0 -13.99643,0 -14.67843,0 -0.806,0 -1.302,0.60452 -1.39505,1.19357 0,0 -0.496,7.34695 -3.069,15.37597 -2.58849,8.04451 -5.56449,13.00451 -8.13749,16.66251 0,0 -0.29451,0.496 -0.29451,1.1005 0,0.2015 0,0.38754 0.093,0.58902 0.403,0.69748 0.992,1.78252 0.992,1.78252 0,0 0.20151,0.60443 1.085,0.60443 h 17.06553"
         id="path12"
         style="stroke-width:0.992" /></g><text
       xml:space="preserve"
       style="font-size:14.1111px;font-family:'CMU Sans Serif';-inkscape-font-specification:'CMU Sans Serif, Normal';text-align:center;letter-spacing:0px;text-anchor:middle;fill:#800000;stroke:#ffffff;stroke-width:0"
       x="196.4424"
       y="145.9902"
       id="text1"><tspan
         sodipodi:role="line"
         id="tspan1"
         style="font-size:14.1111px;stroke-width:0"
         x="196.4424"
         y="145.9902">Which note is defined first?</tspan></text></g></svg>
