<svg width="2860" height="1618" xmlns="http://www.w3.org/2000/svg" xmlns:xlink="http://www.w3.org/1999/xlink" xml:space="preserve" overflow="hidden"><g transform="translate(-751 -453)"><g><rect x="1956.5" y="750.5" width="488" height="337" stroke="#262626" stroke-width="6.875" stroke-linecap="butt" stroke-linejoin="miter" stroke-miterlimit="8" stroke-opacity="1" fill="#FFFFFF" fill-opacity="1"/><text fill="#404040" fill-opacity="1" font-family="NewComputerModernSans08,NewComputerModernSans08_MSFontService,sans-serif" font-style="normal" font-variant="normal" font-weight="400" font-stretch="normal" font-size="83" text-anchor="start" direction="ltr" writing-mode="lr-tb" unicode-bidi="normal" text-decoration="none" transform="matrix(1 0 0 1 2001.2 897)">Conversion</text><text fill="#404040" fill-opacity="1" font-family="NewComputerModernSans08,NewComputerModernSans08_MSFontService,sans-serif" font-style="normal" font-variant="normal" font-weight="400" font-stretch="normal" font-size="83" text-anchor="start" direction="ltr" writing-mode="lr-tb" unicode-bidi="normal" text-decoration="none" transform="matrix(1 0 0 1 2072.24 996)">Library</text><path d="M925.5 460.5 1413.5 460.5 1413.5 742.165 1357.17 798.5 925.5 798.5Z" fill="#FFFFFF" fill-rule="evenodd" fill-opacity="1"/><path d="M1357.17 798.5 1368.43 753.433 1413.5 742.165Z" fill="#CDCDCD" fill-rule="evenodd" fill-opacity="1"/><path d="M1357.17 798.5 1368.43 753.433 1413.5 742.165 1357.17 798.5 925.5 798.5 925.5 460.5 1413.5 460.5 1413.5 742.165" stroke="#262626" stroke-width="6.875" stroke-linecap="butt" stroke-linejoin="miter" stroke-miterlimit="8" stroke-opacity="1" fill="none" fill-rule="evenodd"/><path d="M842.5 518.5 1330.5 518.5 1330.5 799.333 1274.33 855.5 842.5 855.5Z" fill="#FFFFFF" fill-rule="evenodd" fill-opacity="1"/><path d="M1274.33 855.5 1285.57 810.566 1330.5 799.333Z" fill="#CDCDCD" fill-rule="evenodd" fill-opacity="1"/><path d="M1274.33 855.5 1285.57 810.566 1330.5 799.333 1274.33 855.5 842.5 855.5 842.5 518.5 1330.5 518.5 1330.5 799.333" stroke="#262626" stroke-width="6.875" stroke-linecap="butt" stroke-linejoin="miter" stroke-miterlimit="8" stroke-opacity="1" fill="none" fill-rule="evenodd"/><path d="M758.5 581.5 1246.5 581.5 1246.5 862.332 1190.33 918.5 758.5 918.5Z" fill="#FFFFFF" fill-rule="evenodd" fill-opacity="1"/><path d="M1190.33 918.5 1201.57 873.566 1246.5 862.332Z" fill="#CDCDCD" fill-rule="evenodd" fill-opacity="1"/><path d="M1190.33 918.5 1201.57 873.566 1246.5 862.332 1190.33 918.5 758.5 918.5 758.5 581.5 1246.5 581.5 1246.5 862.332" stroke="#262626" stroke-width="6.875" stroke-linecap="butt" stroke-linejoin="miter" stroke-miterlimit="8" stroke-opacity="1" fill="none" fill-rule="evenodd"/><text fill="#404040" fill-opacity="1" font-family="NewComputerModernSans08,NewComputerModernSans08_MSFontService,sans-serif" font-style="normal" font-variant="normal" font-weight="400" font-stretch="normal" font-size="83" text-anchor="start" direction="ltr" writing-mode="lr-tb" unicode-bidi="normal" text-decoration="none" transform="matrix(1 0 0 1 803.443 750)">MusicXML</text><path d="M925.5 1044.5 1413.5 1044.5 1413.5 1326.17 1357.17 1382.5 925.5 1382.5Z" fill="#FFFFFF" fill-rule="evenodd" fill-opacity="1"/><path d="M1357.17 1382.5 1368.43 1337.43 1413.5 1326.17Z" fill="#CDCDCD" fill-rule="evenodd" fill-opacity="1"/><path d="M1357.17 1382.5 1368.43 1337.43 1413.5 1326.17 1357.17 1382.5 925.5 1382.5 925.5 1044.5 1413.5 1044.5 1413.5 1326.17" stroke="#262626" stroke-width="6.875" stroke-linecap="butt" stroke-linejoin="miter" stroke-miterlimit="8" stroke-opacity="1" fill="none" fill-rule="evenodd"/><path d="M842.5 1102.5 1330.5 1102.5 1330.5 1383.33 1274.33 1439.5 842.5 1439.5Z" fill="#FFFFFF" fill-rule="evenodd" fill-opacity="1"/><path d="M1274.33 1439.5 1285.57 1394.57 1330.5 1383.33Z" fill="#CDCDCD" fill-rule="evenodd" fill-opacity="1"/><path d="M1274.33 1439.5 1285.57 1394.57 1330.5 1383.33 1274.33 1439.5 842.5 1439.5 842.5 1102.5 1330.5 1102.5 1330.5 1383.33" stroke="#262626" stroke-width="6.875" stroke-linecap="butt" stroke-linejoin="miter" stroke-miterlimit="8" stroke-opacity="1" fill="none" fill-rule="evenodd"/><path d="M758.5 1165.5 1246.5 1165.5 1246.5 1446.33 1190.33 1502.5 758.5 1502.5Z" fill="#FFFFFF" fill-rule="evenodd" fill-opacity="1"/><path d="M1190.33 1502.5 1201.57 1457.57 1246.5 1446.33Z" fill="#CDCDCD" fill-rule="evenodd" fill-opacity="1"/><path d="M1190.33 1502.5 1201.57 1457.57 1246.5 1446.33 1190.33 1502.5 758.5 1502.5 758.5 1165.5 1246.5 1165.5 1246.5 1446.33" stroke="#262626" stroke-width="6.875" stroke-linecap="butt" stroke-linejoin="miter" stroke-miterlimit="8" stroke-opacity="1" fill="none" fill-rule="evenodd"/><text fill="#404040" fill-opacity="1" font-family="NewComputerModernSans08,NewComputerModernSans08_MSFontService,sans-serif" font-style="normal" font-variant="normal" font-weight="400" font-stretch="normal" font-size="83" text-anchor="start" direction="ltr" writing-mode="lr-tb" unicode-bidi="normal" text-decoration="none" transform="matrix(1 0 0 1 861.881 1285)">Custom</text><text fill="#404040" fill-opacity="1" font-family="NewComputerModernSans08,NewComputerModernSans08_MSFontService,sans-serif" font-style="normal" font-variant="normal" font-weight="400" font-stretch="normal" font-size="83" text-anchor="start" direction="ltr" writing-mode="lr-tb" unicode-bidi="normal" text-decoration="none" transform="matrix(1 0 0 1 868.481 1384)">Format</text><path d="M3109.5 629.5 3597.5 629.5 3597.5 910.332 3541.33 966.5 3109.5 966.5Z" fill="#D9D9D9" fill-rule="evenodd" fill-opacity="1"/><path d="M3541.33 966.5 3552.57 921.566 3597.5 910.332Z" fill="#AEAEAE" fill-rule="evenodd" fill-opacity="1"/><path d="M3541.33 966.5 3552.57 921.566 3597.5 910.332 3541.33 966.5 3109.5 966.5 3109.5 629.5 3597.5 629.5 3597.5 910.332" stroke="#262626" stroke-width="6.875" stroke-linecap="butt" stroke-linejoin="miter" stroke-miterlimit="8" stroke-opacity="1" fill="none" fill-rule="evenodd"/><path d="M3025.5 686.5 3513.5 686.5 3513.5 967.332 3457.33 1023.5 3025.5 1023.5Z" fill="#D9D9D9" fill-rule="evenodd" fill-opacity="1"/><path d="M3457.33 1023.5 3468.57 978.566 3513.5 967.332Z" fill="#AEAEAE" fill-rule="evenodd" fill-opacity="1"/><path d="M3457.33 1023.5 3468.57 978.566 3513.5 967.332 3457.33 1023.5 3025.5 1023.5 3025.5 686.5 3513.5 686.5 3513.5 967.332" stroke="#262626" stroke-width="6.875" stroke-linecap="butt" stroke-linejoin="miter" stroke-miterlimit="8" stroke-opacity="1" fill="none" fill-rule="evenodd"/><path d="M2941.5 750.5 3429.5 750.5 3429.5 1031.33 3373.33 1087.5 2941.5 1087.5Z" fill="#D9D9D9" fill-rule="evenodd" fill-opacity="1"/><path d="M3373.33 1087.5 3384.57 1042.57 3429.5 1031.33Z" fill="#AEAEAE" fill-rule="evenodd" fill-opacity="1"/><path d="M3373.33 1087.5 3384.57 1042.57 3429.5 1031.33 3373.33 1087.5 2941.5 1087.5 2941.5 750.5 3429.5 750.5 3429.5 1031.33" stroke="#262626" stroke-width="6.875" stroke-linecap="butt" stroke-linejoin="miter" stroke-miterlimit="8" stroke-opacity="1" fill="none" fill-rule="evenodd"/><text fill="#404040" fill-opacity="1" font-family="NewComputerModernSans08,NewComputerModernSans08_MSFontService,sans-serif" font-style="normal" font-variant="normal" font-weight="400" font-stretch="normal" font-size="83" text-anchor="start" direction="ltr" writing-mode="lr-tb" unicode-bidi="normal" text-decoration="none" transform="matrix(1 0 0 1 2986.69 919)">MusicXML</text><path d="M0-3.4375 274.849-3.4375 274.849 294.706 271.411 291.268 519.906 291.268 519.906 298.143 267.974 298.143 267.974 0 271.411 3.4375 0 3.4375ZM515.323 280.956 542.823 294.706 515.323 308.456Z" fill="#262626" fill-rule="nonzero" fill-opacity="1" transform="matrix(1 0 0 -1 1413.5 1213.21)"/><path d="M1413.5 626.062 1688.35 626.062 1688.35 918.848 1684.91 915.41 1933.41 915.41 1933.41 922.285 1681.47 922.285 1681.47 629.5 1684.91 632.937 1413.5 632.937ZM1928.82 905.098 1956.32 918.848 1928.82 932.598Z" fill="#262626" fill-rule="nonzero" fill-opacity="1"/><path d="M2444.5 915.062 2451.38 915.062 2451.38 921.938 2444.5 921.938ZM2458.25 915.062 2465.12 915.062 2465.12 921.938 2458.25 921.938ZM2472 915.062 2478.88 915.062 2478.88 921.938 2472 921.938ZM2485.75 915.062 2492.62 915.062 2492.62 921.938 2485.75 921.938ZM2499.5 915.062 2506.38 915.062 2506.38 921.938 2499.5 921.938ZM2513.25 915.062 2520.12 915.062 2520.12 921.938 2513.25 921.938ZM2527 915.062 2533.88 915.062 2533.88 921.938 2527 921.938ZM2540.75 915.062 2547.62 915.062 2547.62 921.938 2540.75 921.938ZM2554.5 915.062 2561.38 915.062 2561.38 921.938 2554.5 921.938ZM2568.25 915.062 2575.12 915.062 2575.12 921.938 2568.25 921.938ZM2582 915.062 2588.88 915.062 2588.88 921.938 2582 921.938ZM2595.75 915.062 2602.62 915.062 2602.62 921.938 2595.75 921.938ZM2609.5 915.062 2616.38 915.062 2616.38 921.938 2609.5 921.938ZM2623.25 915.062 2630.12 915.062 2630.12 921.938 2623.25 921.938ZM2637 915.062 2643.88 915.062 2643.88 921.938 2637 921.938ZM2650.75 915.062 2657.62 915.062 2657.62 921.938 2650.75 921.938ZM2664.5 915.062 2671.38 915.062 2671.38 921.938 2664.5 921.938ZM2678.25 915.062 2685.12 915.062 2685.12 921.938 2678.25 921.938ZM2692 915.062 2696.63 915.062 2696.63 918.5 2693.19 915.063 2698.87 915.063 2698.87 921.938 2689.75 921.938 2689.75 918.5 2693.19 921.938 2692 921.938ZM2705.75 915.063 2712.62 915.063 2712.62 921.938 2705.75 921.938ZM2719.5 915.063 2726.37 915.063 2726.37 921.938 2719.5 921.938ZM2733.25 915.063 2740.12 915.063 2740.12 921.938 2733.25 921.938ZM2747 915.063 2753.87 915.063 2753.87 921.938 2747 921.938ZM2760.75 915.063 2767.62 915.063 2767.62 921.938 2760.75 921.938ZM2774.5 915.063 2781.37 915.063 2781.37 921.938 2774.5 921.938ZM2788.25 915.063 2795.12 915.063 2795.12 921.938 2788.25 921.938ZM2802 915.063 2808.87 915.063 2808.87 921.938 2802 921.938ZM2815.75 915.063 2822.62 915.063 2822.62 921.938 2815.75 921.938ZM2829.5 915.063 2836.37 915.063 2836.37 921.938 2829.5 921.938ZM2843.25 915.063 2850.12 915.063 2850.12 921.938 2843.25 921.938ZM2857 915.063 2863.87 915.063 2863.87 921.938 2857 921.938ZM2870.75 915.063 2877.62 915.063 2877.62 921.938 2870.75 921.938ZM2884.5 915.063 2891.37 915.063 2891.37 921.938 2884.5 921.938ZM2898.25 915.063 2905.12 915.063 2905.12 921.938 2898.25 921.938ZM2912 915.063 2918.87 915.063 2918.87 921.938 2912 921.938ZM2914.38 904.75 2941.88 918.5 2914.38 932.25Z" fill="#404040" fill-rule="nonzero" fill-opacity="1"/><path d="M925.5 1607.5 1413.5 1607.5 1413.5 1888.33 1357.33 1944.5 925.5 1944.5Z" fill="#D9D9D9" fill-rule="evenodd" fill-opacity="1"/><path d="M1357.33 1944.5 1368.57 1899.57 1413.5 1888.33Z" fill="#AEAEAE" fill-rule="evenodd" fill-opacity="1"/><path d="M1357.33 1944.5 1368.57 1899.57 1413.5 1888.33 1357.33 1944.5 925.5 1944.5 925.5 1607.5 1413.5 1607.5 1413.5 1888.33" stroke="#262626" stroke-width="6.875" stroke-linecap="butt" stroke-linejoin="miter" stroke-miterlimit="8" stroke-opacity="1" fill="none" fill-rule="evenodd"/><path d="M842.5 1664.5 1330.5 1664.5 1330.5 1946.17 1274.17 2002.5 842.5 2002.5Z" fill="#D9D9D9" fill-rule="evenodd" fill-opacity="1"/><path d="M1274.17 2002.5 1285.43 1957.43 1330.5 1946.17Z" fill="#AEAEAE" fill-rule="evenodd" fill-opacity="1"/><path d="M1274.17 2002.5 1285.43 1957.43 1330.5 1946.17 1274.17 2002.5 842.5 2002.5 842.5 1664.5 1330.5 1664.5 1330.5 1946.17" stroke="#262626" stroke-width="6.875" stroke-linecap="butt" stroke-linejoin="miter" stroke-miterlimit="8" stroke-opacity="1" fill="none" fill-rule="evenodd"/><path d="M758.5 1728.5 1246.5 1728.5 1246.5 2009.33 1190.33 2065.5 758.5 2065.5Z" fill="#D9D9D9" fill-rule="evenodd" fill-opacity="1"/><path d="M1190.33 2065.5 1201.57 2020.57 1246.5 2009.33Z" fill="#AEAEAE" fill-rule="evenodd" fill-opacity="1"/><path d="M1190.33 2065.5 1201.57 2020.57 1246.5 2009.33 1190.33 2065.5 758.5 2065.5 758.5 1728.5 1246.5 1728.5 1246.5 2009.33" stroke="#262626" stroke-width="6.875" stroke-linecap="butt" stroke-linejoin="miter" stroke-miterlimit="8" stroke-opacity="1" fill="none" fill-rule="evenodd"/><text fill="#404040" fill-opacity="1" font-family="NewComputerModernSans08,NewComputerModernSans08_MSFontService,sans-serif" font-style="normal" font-variant="normal" font-weight="400" font-stretch="normal" font-size="64" text-anchor="start" direction="ltr" writing-mode="lr-tb" unicode-bidi="normal" text-decoration="none" transform="matrix(1 0 0 1 801.45 1852)">Other</text><text fill="#404040" fill-opacity="1" font-family="NewComputerModernSans08,NewComputerModernSans08_MSFontService,sans-serif" font-style="normal" font-variant="normal" font-weight="400" font-stretch="normal" font-size="64" text-anchor="start" direction="ltr" writing-mode="lr-tb" unicode-bidi="normal" text-decoration="none" transform="matrix(1 0 0 1 986.502 1852)">f</text><text fill="#404040" fill-opacity="1" font-family="NewComputerModernSans08,NewComputerModernSans08_MSFontService,sans-serif" font-style="normal" font-variant="normal" font-weight="400" font-stretch="normal" font-size="64" text-anchor="start" direction="ltr" writing-mode="lr-tb" unicode-bidi="normal" text-decoration="none" transform="matrix(1 0 0 1 1007.13 1852)">ormats</text><text fill="#404040" fill-opacity="1" font-family="NewComputerModernSans08,NewComputerModernSans08_MSFontService,sans-serif" font-style="normal" font-variant="normal" font-weight="400" font-stretch="normal" font-size="64" text-anchor="start" direction="ltr" writing-mode="lr-tb" unicode-bidi="normal" text-decoration="none" transform="matrix(1 0 0 1 796.568 1929)">(MEI, *</text><text fill="#404040" fill-opacity="1" font-family="NewComputerModernSans08,NewComputerModernSans08_MSFontService,sans-serif" font-style="normal" font-variant="normal" font-weight="400" font-stretch="normal" font-size="64" text-anchor="start" direction="ltr" writing-mode="lr-tb" unicode-bidi="normal" text-decoration="none" transform="matrix(1 0 0 1 1016 1929)">kern</text><text fill="#404040" fill-opacity="1" font-family="NewComputerModernSans08,NewComputerModernSans08_MSFontService,sans-serif" font-style="normal" font-variant="normal" font-weight="400" font-stretch="normal" font-size="64" text-anchor="start" direction="ltr" writing-mode="lr-tb" unicode-bidi="normal" text-decoration="none" transform="matrix(1 0 0 1 1138.03 1929)">…)</text><path d="M0-3.4375 6.875-3.4375 6.875 3.4375 0 3.4375ZM13.75-3.4375 20.625-3.4375 20.625 3.4375 13.75 3.4375ZM27.5-3.4375 34.375-3.4375 34.375 3.4375 27.5 3.4375ZM41.25-3.4375 48.125-3.4375 48.125 3.4375 41.25 3.4375ZM55-3.4375 61.875-3.4375 61.875 3.4375 55 3.4375ZM68.75-3.4375 75.625-3.4375 75.625 3.4375 68.75 3.4375ZM82.5-3.4375 89.375-3.4375 89.375 3.4375 82.5 3.4375ZM96.25-3.4375 103.125-3.4375 103.125 3.4375 96.25 3.4375ZM110-3.4375 116.875-3.4375 116.875 3.4375 110 3.4375ZM123.75-3.4375 130.625-3.4375 130.625 3.4375 123.75 3.4375ZM137.5-3.4375 144.375-3.4375 144.375 3.4375 137.5 3.4375ZM151.25-3.4375 158.125-3.4375 158.125 3.4375 151.25 3.4375ZM165-3.4375 171.875-3.4375 171.875 3.4375 165 3.4375ZM178.75-3.4375 185.625-3.4375 185.625 3.4375 178.75 3.4375ZM192.5-3.4375 199.375-3.4375 199.375 3.4375 192.5 3.4375ZM206.25-3.4375 213.125-3.4375 213.125 3.4375 206.25 3.4375ZM220-3.4375 226.875-3.4375 226.875 3.4375 220 3.4375ZM233.75-3.4375 240.625-3.4375 240.625 3.4375 233.75 3.4375ZM247.5-3.4375 254.375-3.4375 254.375 3.4375 247.5 3.4375ZM261.25-3.4375 268.125-3.4375 268.125 3.4375 261.25 3.4375ZM274.849 3.58871 274.849 10.4637 267.974 10.4637 267.974 3.58871ZM274.849 17.3387 274.849 24.2137 267.974 24.2137 267.974 17.3387ZM274.849 31.0887 274.849 37.9637 267.974 37.9637 267.974 31.0887ZM274.849 44.8387 274.849 51.7137 267.974 51.7137 267.974 44.8387ZM274.849 58.5887 274.849 65.4637 267.974 65.4637 267.974 58.5887ZM274.849 72.3387 274.849 79.2137 267.974 79.2137 267.974 72.3387ZM274.849 86.0887 274.849 92.9637 267.974 92.9637 267.974 86.0887ZM274.849 99.8387 274.849 106.714 267.974 106.714 267.974 99.8387ZM274.849 113.589 274.849 120.464 267.974 120.464 267.974 113.589ZM274.849 127.339 274.849 134.214 267.974 134.214 267.974 127.339ZM274.849 141.089 274.849 147.964 267.974 147.964 267.974 141.089ZM274.849 154.839 274.849 161.714 267.974 161.714 267.974 154.839ZM274.849 168.589 274.849 175.464 267.974 175.464 267.974 168.589ZM274.849 182.339 274.849 189.214 267.974 189.214 267.974 182.339ZM274.849 196.089 274.849 202.964 267.974 202.964 267.974 196.089ZM274.849 209.839 274.849 216.714 267.974 216.714 267.974 209.839ZM274.849 223.589 274.849 230.464 267.974 230.464 267.974 223.589ZM274.849 237.339 274.849 244.214 267.974 244.214 267.974 237.339ZM274.849 251.089 274.849 257.964 267.974 257.964 267.974 251.089ZM274.849 264.839 274.849 271.714 267.974 271.714 267.974 264.839ZM274.849 278.589 274.849 285.464 267.974 285.464 267.974 278.589ZM274.849 292.339 274.849 299.214 267.974 299.214 267.974 292.339ZM274.849 306.089 274.849 312.964 267.974 312.964 267.974 306.089ZM274.849 319.839 274.849 326.714 267.974 326.714 267.974 319.839ZM274.849 333.589 274.849 340.464 267.974 340.464 267.974 333.589ZM274.849 347.339 274.849 354.214 267.974 354.214 267.974 347.339ZM274.849 361.089 274.849 367.964 267.974 367.964 267.974 361.089ZM274.849 374.839 274.849 381.714 267.974 381.714 267.974 374.839ZM274.849 388.589 274.849 395.464 267.974 395.464 267.974 388.589ZM274.849 402.339 274.849 409.214 267.974 409.214 267.974 402.339ZM274.849 416.089 274.849 422.964 267.974 422.964 267.974 416.089ZM274.849 429.839 274.849 436.714 267.974 436.714 267.974 429.839ZM274.849 443.589 274.849 450.464 267.974 450.464 267.974 443.589ZM274.849 457.339 274.849 464.214 267.974 464.214 267.974 457.339ZM274.849 471.089 274.849 477.964 267.974 477.964 267.974 471.089ZM274.849 484.839 274.849 491.714 267.974 491.714 267.974 484.839ZM274.849 498.589 274.849 505.464 267.974 505.464 267.974 498.589ZM274.849 512.339 274.849 519.214 267.974 519.214 267.974 512.339ZM274.849 526.089 274.849 532.964 267.974 532.964 267.974 526.089ZM274.849 539.839 274.849 546.714 267.974 546.714 267.974 539.839ZM274.849 553.589 274.849 560.464 267.974 560.464 267.974 553.589ZM274.849 567.339 274.849 574.214 267.974 574.214 267.974 567.339ZM274.849 581.089 274.849 587.964 267.974 587.964 267.974 581.089ZM274.849 594.839 274.849 601.714 267.974 601.714 267.974 594.839ZM274.849 608.589 274.849 615.464 267.974 615.464 267.974 608.589ZM274.849 622.339 274.849 629.214 267.974 629.214 267.974 622.339ZM274.849 636.089 274.849 642.964 267.974 642.964 267.974 636.089ZM274.849 649.839 274.849 656.714 267.974 656.714 267.974 649.839ZM274.849 663.589 274.849 670.464 267.974 670.464 267.974 663.589ZM274.849 677.339 274.849 684.214 267.974 684.214 267.974 677.339ZM274.849 691.089 274.849 697.964 267.974 697.964 267.974 691.089ZM274.849 704.839 274.849 711.714 267.974 711.714 267.974 704.839ZM274.849 718.589 274.849 725.464 267.974 725.464 267.974 718.589ZM274.849 732.339 274.849 739.214 267.974 739.214 267.974 732.339ZM274.849 746.089 274.849 752.964 267.974 752.964 267.974 746.089ZM274.849 759.839 274.849 766.714 267.974 766.714 267.974 759.839ZM274.849 773.589 274.849 780.464 267.974 780.464 267.974 773.589ZM274.849 787.339 274.849 794.214 267.974 794.214 267.974 787.339ZM274.849 801.089 274.849 807.964 267.974 807.964 267.974 801.089ZM274.849 814.839 274.849 821.714 267.974 821.714 267.974 814.839ZM274.849 828.589 274.849 835.464 267.974 835.464 267.974 828.589ZM274.849 842.339 274.849 849.214 267.974 849.214 267.974 842.339ZM274.849 856.089 274.849 857.283 271.411 853.845 277.092 853.845 277.092 860.72 267.974 860.72 267.974 856.089ZM283.967 853.845 290.842 853.845 290.842 860.72 283.967 860.72ZM297.717 853.845 304.592 853.845 304.592 860.72 297.717 860.72ZM311.467 853.845 318.342 853.845 318.342 860.72 311.467 860.72ZM325.217 853.845 332.092 853.845 332.092 860.72 325.217 860.72ZM338.967 853.845 345.842 853.845 345.842 860.72 338.967 860.72ZM352.717 853.845 359.592 853.845 359.592 860.72 352.717 860.72ZM366.467 853.845 373.342 853.845 373.342 860.72 366.467 860.72ZM380.217 853.845 387.092 853.845 387.092 860.72 380.217 860.72ZM393.967 853.845 400.842 853.845 400.842 860.72 393.967 860.72ZM407.717 853.845 414.592 853.845 414.592 860.72 407.717 860.72ZM421.467 853.845 428.342 853.845 428.342 860.72 421.467 860.72ZM435.217 853.845 442.092 853.845 442.092 860.72 435.217 860.72ZM448.967 853.845 455.842 853.845 455.842 860.72 448.967 860.72ZM462.717 853.845 469.592 853.845 469.592 860.72 462.717 860.72ZM476.467 853.845 483.342 853.845 483.342 860.72 476.467 860.72ZM490.217 853.845 497.092 853.845 497.092 860.72 490.217 860.72ZM503.967 853.845 510.842 853.845 510.842 860.72 503.967 860.72ZM517.717 853.845 519.906 853.845 519.906 860.72 517.717 860.72ZM515.323 843.533 542.823 857.283 515.323 871.033Z" fill="#262626" fill-rule="nonzero" fill-opacity="1" transform="matrix(1 0 0 -1 1413.5 1775.78)"/><path d="M3109.5 1203.5 3597.5 1203.5 3597.5 1485.17 3541.17 1541.5 3109.5 1541.5Z" fill="#D9D9D9" fill-rule="evenodd" fill-opacity="1"/><path d="M3541.17 1541.5 3552.43 1496.43 3597.5 1485.17Z" fill="#AEAEAE" fill-rule="evenodd" fill-opacity="1"/><path d="M3541.17 1541.5 3552.43 1496.43 3597.5 1485.17 3541.17 1541.5 3109.5 1541.5 3109.5 1203.5 3597.5 1203.5 3597.5 1485.17" stroke="#262626" stroke-width="6.875" stroke-linecap="butt" stroke-linejoin="miter" stroke-miterlimit="8" stroke-opacity="1" fill="none" fill-rule="evenodd"/><path d="M3025.5 1261.5 3513.5 1261.5 3513.5 1542.33 3457.33 1598.5 3025.5 1598.5Z" fill="#D9D9D9" fill-rule="evenodd" fill-opacity="1"/><path d="M3457.33 1598.5 3468.57 1553.57 3513.5 1542.33Z" fill="#AEAEAE" fill-rule="evenodd" fill-opacity="1"/><path d="M3457.33 1598.5 3468.57 1553.57 3513.5 1542.33 3457.33 1598.5 3025.5 1598.5 3025.5 1261.5 3513.5 1261.5 3513.5 1542.33" stroke="#262626" stroke-width="6.875" stroke-linecap="butt" stroke-linejoin="miter" stroke-miterlimit="8" stroke-opacity="1" fill="none" fill-rule="evenodd"/><path d="M2941.5 1324.5 3429.5 1324.5 3429.5 1605.33 3373.33 1661.5 2941.5 1661.5Z" fill="#D9D9D9" fill-rule="evenodd" fill-opacity="1"/><path d="M3373.33 1661.5 3384.57 1616.57 3429.5 1605.33Z" fill="#AEAEAE" fill-rule="evenodd" fill-opacity="1"/><path d="M3373.33 1661.5 3384.57 1616.57 3429.5 1605.33 3373.33 1661.5 2941.5 1661.5 2941.5 1324.5 3429.5 1324.5 3429.5 1605.33" stroke="#262626" stroke-width="6.875" stroke-linecap="butt" stroke-linejoin="miter" stroke-miterlimit="8" stroke-opacity="1" fill="none" fill-rule="evenodd"/><text fill="#404040" fill-opacity="1" font-family="NewComputerModernSans08,NewComputerModernSans08_MSFontService,sans-serif" font-style="normal" font-variant="normal" font-weight="400" font-stretch="normal" font-size="64" text-anchor="start" direction="ltr" writing-mode="lr-tb" unicode-bidi="normal" text-decoration="none" transform="matrix(1 0 0 1 2984.7 1449)">Other</text><text fill="#404040" fill-opacity="1" font-family="NewComputerModernSans08,NewComputerModernSans08_MSFontService,sans-serif" font-style="normal" font-variant="normal" font-weight="400" font-stretch="normal" font-size="64" text-anchor="start" direction="ltr" writing-mode="lr-tb" unicode-bidi="normal" text-decoration="none" transform="matrix(1 0 0 1 3169.75 1449)">f</text><text fill="#404040" fill-opacity="1" font-family="NewComputerModernSans08,NewComputerModernSans08_MSFontService,sans-serif" font-style="normal" font-variant="normal" font-weight="400" font-stretch="normal" font-size="64" text-anchor="start" direction="ltr" writing-mode="lr-tb" unicode-bidi="normal" text-decoration="none" transform="matrix(1 0 0 1 3190.38 1449)">ormats</text><text fill="#404040" fill-opacity="1" font-family="NewComputerModernSans08,NewComputerModernSans08_MSFontService,sans-serif" font-style="normal" font-variant="normal" font-weight="400" font-stretch="normal" font-size="64" text-anchor="start" direction="ltr" writing-mode="lr-tb" unicode-bidi="normal" text-decoration="none" transform="matrix(1 0 0 1 2979.82 1526)">(MEI, *</text><text fill="#404040" fill-opacity="1" font-family="NewComputerModernSans08,NewComputerModernSans08_MSFontService,sans-serif" font-style="normal" font-variant="normal" font-weight="400" font-stretch="normal" font-size="64" text-anchor="start" direction="ltr" writing-mode="lr-tb" unicode-bidi="normal" text-decoration="none" transform="matrix(1 0 0 1 3199.25 1526)">kern</text><text fill="#404040" fill-opacity="1" font-family="NewComputerModernSans08,NewComputerModernSans08_MSFontService,sans-serif" font-style="normal" font-variant="normal" font-weight="400" font-stretch="normal" font-size="64" text-anchor="start" direction="ltr" writing-mode="lr-tb" unicode-bidi="normal" text-decoration="none" transform="matrix(1 0 0 1 3321.28 1526)">…)</text><path d="M2444.5 915.062 2451.38 915.062 2451.38 921.938 2444.5 921.938ZM2458.25 915.062 2465.12 915.062 2465.12 921.938 2458.25 921.938ZM2472 915.062 2478.88 915.062 2478.88 921.938 2472 921.938ZM2485.75 915.062 2492.62 915.062 2492.62 921.938 2485.75 921.938ZM2499.5 915.062 2506.38 915.062 2506.38 921.938 2499.5 921.938ZM2513.25 915.062 2520.12 915.062 2520.12 921.938 2513.25 921.938ZM2527 915.062 2533.88 915.062 2533.88 921.938 2527 921.938ZM2540.75 915.062 2547.62 915.062 2547.62 921.938 2540.75 921.938ZM2554.5 915.062 2561.38 915.062 2561.38 921.938 2554.5 921.938ZM2568.25 915.062 2575.12 915.062 2575.12 921.938 2568.25 921.938ZM2582 915.062 2588.88 915.062 2588.88 921.938 2582 921.938ZM2595.75 915.062 2602.62 915.062 2602.62 921.938 2595.75 921.938ZM2609.5 915.062 2616.38 915.062 2616.38 921.938 2609.5 921.938ZM2623.25 915.062 2630.12 915.062 2630.12 921.938 2623.25 921.938ZM2637 915.062 2643.88 915.062 2643.88 921.938 2637 921.938ZM2650.75 915.062 2657.62 915.062 2657.62 921.938 2650.75 921.938ZM2664.5 915.062 2671.38 915.062 2671.38 921.938 2664.5 921.938ZM2678.25 915.062 2685.12 915.062 2685.12 921.938 2678.25 921.938ZM2692 915.062 2696.63 915.062 2696.63 924.183 2689.75 924.183 2689.75 918.5 2693.19 921.938 2692 921.938ZM2696.63 931.058 2696.63 937.933 2689.75 937.933 2689.75 931.058ZM2696.63 944.808 2696.63 951.683 2689.75 951.683 2689.75 944.808ZM2696.63 958.558 2696.63 965.433 2689.75 965.433 2689.75 958.558ZM2696.63 972.308 2696.63 979.183 2689.75 979.183 2689.75 972.308ZM2696.63 986.058 2696.63 992.933 2689.75 992.933 2689.75 986.058ZM2696.63 999.808 2696.63 1006.68 2689.75 1006.68 2689.75 999.808ZM2696.63 1013.56 2696.63 1020.43 2689.75 1020.43 2689.75 1013.56ZM2696.63 1027.31 2696.63 1034.18 2689.75 1034.18 2689.75 1027.31ZM2696.63 1041.06 2696.63 1047.93 2689.75 1047.93 2689.75 1041.06ZM2696.63 1054.81 2696.63 1061.68 2689.75 1061.68 2689.75 1054.81ZM2696.63 1068.56 2696.63 1075.43 2689.75 1075.43 2689.75 1068.56ZM2696.63 1082.31 2696.63 1089.18 2689.75 1089.18 2689.75 1082.31ZM2696.63 1096.06 2696.63 1102.93 2689.75 1102.93 2689.75 1096.06ZM2696.63 1109.81 2696.63 1116.68 2689.75 1116.68 2689.75 1109.81ZM2696.63 1123.56 2696.63 1130.43 2689.75 1130.43 2689.75 1123.56ZM2696.63 1137.31 2696.63 1144.18 2689.75 1144.18 2689.75 1137.31ZM2696.63 1151.06 2696.63 1157.93 2689.75 1157.93 2689.75 1151.06ZM2696.63 1164.81 2696.63 1171.68 2689.75 1171.68 2689.75 1164.81ZM2696.63 1178.56 2696.63 1185.43 2689.75 1185.43 2689.75 1178.56ZM2696.63 1192.31 2696.63 1199.18 2689.75 1199.18 2689.75 1192.31ZM2696.63 1206.06 2696.63 1212.93 2689.75 1212.93 2689.75 1206.06ZM2696.63 1219.81 2696.63 1226.68 2689.75 1226.68 2689.75 1219.81ZM2696.63 1233.56 2696.63 1240.43 2689.75 1240.43 2689.75 1233.56ZM2696.63 1247.31 2696.63 1254.18 2689.75 1254.18 2689.75 1247.31ZM2696.63 1261.06 2696.63 1267.93 2689.75 1267.93 2689.75 1261.06ZM2696.63 1274.81 2696.63 1281.68 2689.75 1281.68 2689.75 1274.81ZM2696.63 1288.56 2696.63 1295.43 2689.75 1295.43 2689.75 1288.56ZM2696.63 1302.31 2696.63 1309.18 2689.75 1309.18 2689.75 1302.31ZM2696.63 1316.06 2696.63 1322.93 2689.75 1322.93 2689.75 1316.06ZM2696.63 1329.81 2696.63 1336.68 2689.75 1336.68 2689.75 1329.81ZM2696.63 1343.56 2696.63 1350.43 2689.75 1350.43 2689.75 1343.56ZM2696.63 1357.31 2696.63 1364.18 2689.75 1364.18 2689.75 1357.31ZM2696.63 1371.06 2696.63 1377.93 2689.75 1377.93 2689.75 1371.06ZM2696.63 1384.81 2696.63 1391.68 2689.75 1391.68 2689.75 1384.81ZM2696.63 1398.56 2696.63 1405.43 2689.75 1405.43 2689.75 1398.56ZM2696.63 1412.31 2696.63 1419.18 2689.75 1419.18 2689.75 1412.31ZM2696.63 1426.06 2696.63 1432.93 2689.75 1432.93 2689.75 1426.06ZM2696.63 1439.81 2696.63 1446.68 2689.75 1446.68 2689.75 1439.81ZM2696.63 1453.56 2696.63 1460.43 2689.75 1460.43 2689.75 1453.56ZM2696.63 1467.31 2696.63 1474.18 2689.75 1474.18 2689.75 1467.31ZM2696.63 1481.06 2696.63 1487.93 2689.75 1487.93 2689.75 1481.06ZM2694.99 1489.57 2701.86 1489.57 2701.86 1496.45 2694.99 1496.45ZM2708.74 1489.57 2715.61 1489.57 2715.61 1496.45 2708.74 1496.45ZM2722.49 1489.57 2729.36 1489.57 2729.36 1496.45 2722.49 1496.45ZM2736.24 1489.57 2743.11 1489.57 2743.11 1496.45 2736.24 1496.45ZM2749.99 1489.57 2756.86 1489.57 2756.86 1496.45 2749.99 1496.45ZM2763.74 1489.57 2770.61 1489.57 2770.61 1496.45 2763.74 1496.45ZM2777.49 1489.57 2784.36 1489.57 2784.36 1496.45 2777.49 1496.45ZM2791.24 1489.57 2798.11 1489.57 2798.11 1496.45 2791.24 1496.45ZM2804.99 1489.57 2811.86 1489.57 2811.86 1496.45 2804.99 1496.45ZM2818.74 1489.57 2825.61 1489.57 2825.61 1496.45 2818.74 1496.45ZM2832.49 1489.57 2839.36 1489.57 2839.36 1496.45 2832.49 1496.45ZM2846.24 1489.57 2853.11 1489.57 2853.11 1496.45 2846.24 1496.45ZM2859.99 1489.57 2866.86 1489.57 2866.86 1496.45 2859.99 1496.45ZM2873.74 1489.57 2880.61 1489.57 2880.61 1496.45 2873.74 1496.45ZM2887.49 1489.57 2894.36 1489.57 2894.36 1496.45 2887.49 1496.45ZM2901.24 1489.57 2908.11 1489.57 2908.11 1496.45 2901.24 1496.45ZM2914.99 1489.57 2918.97 1489.57 2918.97 1496.45 2914.99 1496.45ZM2914.38 1479.26 2941.88 1493.01 2914.38 1506.76Z" fill="#3A3A3A" fill-rule="nonzero" fill-opacity="1"/><rect x="1956.5" y="1208.5" width="488" height="337" stroke="#262626" stroke-width="6.875" stroke-linecap="butt" stroke-linejoin="miter" stroke-miterlimit="8" stroke-opacity="1" fill="#FFFFFF" fill-opacity="1"/><text fill="#404040" fill-opacity="1" font-family="NewComputerModernSans08,NewComputerModernSans08_MSFontService,sans-serif" font-style="normal" font-variant="normal" font-weight="400" font-stretch="normal" font-size="83" text-anchor="start" direction="ltr" writing-mode="lr-tb" unicode-bidi="normal" text-decoration="none" transform="matrix(1 0 0 1 2008.07 1355)">Evaluation</text><text fill="#404040" fill-opacity="1" font-family="NewComputerModernSans08,NewComputerModernSans08_MSFontService,sans-serif" font-style="normal" font-variant="normal" font-weight="400" font-stretch="normal" font-size="83" text-anchor="start" direction="ltr" writing-mode="lr-tb" unicode-bidi="normal" text-decoration="none" transform="matrix(1 0 0 1 2116.06 1454)">Tool</text><path d="M2203.94 1087.5 2203.94 1185.34 2197.06 1185.34 2197.06 1087.5ZM2214.25 1180.76 2200.5 1208.26 2186.75 1180.76Z" fill="#262626" fill-rule="nonzero" fill-opacity="1"/></g></g></svg>